<?xml version="1.0" encoding="UTF-8" standalone="no"?>
<!-- Created with Inkscape (http://www.inkscape.org/) -->

<svg
   xmlns:svg="http://www.w3.org/2000/svg"
   xmlns="http://www.w3.org/2000/svg"
   version="1.1"
   width="508.29297"
   height="290.72656"
   id="svg2">
  <defs
     id="defs4">
    <marker
       refX="0"
       refY="0"
       orient="auto"
       id="Arrow1Lend"
       style="overflow:visible">
      <path
         d="M 0,0 5,-5 -12.5,0 5,5 0,0 z"
         transform="matrix(-0.8,0,0,-0.8,-10,0)"
         id="path3905"
         style="fill-rule:evenodd;stroke:#000000;stroke-width:1pt;marker-start:none" />
    </marker>
    <marker
       refX="0"
       refY="0"
       orient="auto"
       id="Arrow1Lend-1"
       style="overflow:visible">
      <path
         d="M 0,0 5,-5 -12.5,0 5,5 0,0 z"
         transform="matrix(-0.8,0,0,-0.8,-10,0)"
         id="path3905-5"
         style="fill-rule:evenodd;stroke:#000000;stroke-width:1pt;marker-start:none" />
    </marker>
    <marker
       refX="0"
       refY="0"
       orient="auto"
       id="Arrow1Lend-8"
       style="overflow:visible">
      <path
         d="M 0,0 5,-5 -12.5,0 5,5 0,0 z"
         transform="matrix(-0.8,0,0,-0.8,-10,0)"
         id="path3905-4"
         style="fill-rule:evenodd;stroke:#000000;stroke-width:1pt;marker-start:none" />
    </marker>
    <marker
       refX="0"
       refY="0"
       orient="auto"
       id="marker4389"
       style="overflow:visible">
      <path
         d="M 0,0 5,-5 -12.5,0 5,5 0,0 z"
         transform="matrix(-0.8,0,0,-0.8,-10,0)"
         id="path4391"
         style="fill-rule:evenodd;stroke:#000000;stroke-width:1pt;marker-start:none" />
    </marker>
    <marker
       refX="0"
       refY="0"
       orient="auto"
       id="Arrow1Lend-0"
       style="overflow:visible">
      <path
         d="M 0,0 5,-5 -12.5,0 5,5 0,0 z"
         transform="matrix(-0.8,0,0,-0.8,-10,0)"
         id="path3905-3"
         style="fill-rule:evenodd;stroke:#000000;stroke-width:1pt;marker-start:none" />
    </marker>
    <marker
       refX="0"
       refY="0"
       orient="auto"
       id="marker4428"
       style="overflow:visible">
      <path
         d="M 0,0 5,-5 -12.5,0 5,5 0,0 z"
         transform="matrix(-0.8,0,0,-0.8,-10,0)"
         id="path4430"
         style="fill-rule:evenodd;stroke:#000000;stroke-width:1pt;marker-start:none" />
    </marker>
    <marker
       refX="0"
       refY="0"
       orient="auto"
       id="marker4432"
       style="overflow:visible">
      <path
         d="M 0,0 5,-5 -12.5,0 5,5 0,0 z"
         transform="matrix(-0.8,0,0,-0.8,-10,0)"
         id="path4434"
         style="fill-rule:evenodd;stroke:#000000;stroke-width:1pt;marker-start:none" />
    </marker>
    <marker
       refX="0"
       refY="0"
       orient="auto"
       id="marker4436"
       style="overflow:visible">
      <path
         d="M 0,0 5,-5 -12.5,0 5,5 0,0 z"
         transform="matrix(-0.8,0,0,-0.8,-10,0)"
         id="path4438"
         style="fill-rule:evenodd;stroke:#000000;stroke-width:1pt;marker-start:none" />
    </marker>
    <marker
       refX="0"
       refY="0"
       orient="auto"
       id="Arrow1Lend-7"
       style="overflow:visible">
      <path
         d="M 0,0 5,-5 -12.5,0 5,5 0,0 z"
         transform="matrix(-0.8,0,0,-0.8,-10,0)"
         id="path3905-6"
         style="fill-rule:evenodd;stroke:#000000;stroke-width:1pt;marker-start:none" />
    </marker>
    <marker
       refX="0"
       refY="0"
       orient="auto"
       id="marker4428-3"
       style="overflow:visible">
      <path
         d="M 0,0 5,-5 -12.5,0 5,5 0,0 z"
         transform="matrix(-0.8,0,0,-0.8,-10,0)"
         id="path4430-1"
         style="fill-rule:evenodd;stroke:#000000;stroke-width:1pt;marker-start:none" />
    </marker>
    <marker
       refX="0"
       refY="0"
       orient="auto"
       id="marker4432-7"
       style="overflow:visible">
      <path
         d="M 0,0 5,-5 -12.5,0 5,5 0,0 z"
         transform="matrix(-0.8,0,0,-0.8,-10,0)"
         id="path4434-5"
         style="fill-rule:evenodd;stroke:#000000;stroke-width:1pt;marker-start:none" />
    </marker>
    <marker
       refX="0"
       refY="0"
       orient="auto"
       id="marker4436-9"
       style="overflow:visible">
      <path
         d="M 0,0 5,-5 -12.5,0 5,5 0,0 z"
         transform="matrix(-0.8,0,0,-0.8,-10,0)"
         id="path4438-6"
         style="fill-rule:evenodd;stroke:#000000;stroke-width:1pt;marker-start:none" />
    </marker>
    <marker
       refX="0"
       refY="0"
       orient="auto"
       id="Arrow1Lend-04"
       style="overflow:visible">
      <path
         d="M 0,0 5,-5 -12.5,0 5,5 0,0 z"
         transform="matrix(-0.8,0,0,-0.8,-10,0)"
         id="path3905-8"
         style="fill-rule:evenodd;stroke:#000000;stroke-width:1pt;marker-start:none" />
    </marker>
    <marker
       refX="0"
       refY="0"
       orient="auto"
       id="marker4651"
       style="overflow:visible">
      <path
         d="M 0,0 5,-5 -12.5,0 5,5 0,0 z"
         transform="matrix(-0.8,0,0,-0.8,-10,0)"
         id="path4653"
         style="fill-rule:evenodd;stroke:#000000;stroke-width:1pt;marker-start:none" />
    </marker>
    <marker
       refX="0"
       refY="0"
       orient="auto"
       id="marker4655"
       style="overflow:visible">
      <path
         d="M 0,0 5,-5 -12.5,0 5,5 0,0 z"
         transform="matrix(-0.8,0,0,-0.8,-10,0)"
         id="path4657"
         style="fill-rule:evenodd;stroke:#000000;stroke-width:1pt;marker-start:none" />
    </marker>
    <marker
       refX="0"
       refY="0"
       orient="auto"
       id="marker4659"
       style="overflow:visible">
      <path
         d="M 0,0 5,-5 -12.5,0 5,5 0,0 z"
         transform="matrix(-0.8,0,0,-0.8,-10,0)"
         id="path4661"
         style="fill-rule:evenodd;stroke:#000000;stroke-width:1pt;marker-start:none" />
    </marker>
    <marker
       refX="0"
       refY="0"
       orient="auto"
       id="Arrow1Lend-9"
       style="overflow:visible">
      <path
         d="M 0,0 5,-5 -12.5,0 5,5 0,0 z"
         transform="matrix(-0.8,0,0,-0.8,-10,0)"
         id="path3905-46"
         style="fill-rule:evenodd;stroke:#000000;stroke-width:1pt;marker-start:none" />
    </marker>
    <marker
       refX="0"
       refY="0"
       orient="auto"
       id="marker4651-9"
       style="overflow:visible">
      <path
         d="M 0,0 5,-5 -12.5,0 5,5 0,0 z"
         transform="matrix(-0.8,0,0,-0.8,-10,0)"
         id="path4653-2"
         style="fill-rule:evenodd;stroke:#000000;stroke-width:1pt;marker-start:none" />
    </marker>
    <marker
       refX="0"
       refY="0"
       orient="auto"
       id="marker4655-2"
       style="overflow:visible">
      <path
         d="M 0,0 5,-5 -12.5,0 5,5 0,0 z"
         transform="matrix(-0.8,0,0,-0.8,-10,0)"
         id="path4657-4"
         style="fill-rule:evenodd;stroke:#000000;stroke-width:1pt;marker-start:none" />
    </marker>
    <marker
       refX="0"
       refY="0"
       orient="auto"
       id="marker4659-7"
       style="overflow:visible">
      <path
         d="M 0,0 5,-5 -12.5,0 5,5 0,0 z"
         transform="matrix(-0.8,0,0,-0.8,-10,0)"
         id="path4661-7"
         style="fill-rule:evenodd;stroke:#000000;stroke-width:1pt;marker-start:none" />
    </marker>
  </defs>
  <g
     transform="translate(-12.207031,-411.86218)"
     id="layer1">
    <rect
       width="40"
       height="40"
       x="40"
       y="412.36218"
       id="rect2818"
       style="fill:#cc7b14;fill-opacity:1;stroke:#000000;stroke-opacity:1" />
    <rect
       width="40"
       height="40"
       x="80"
       y="412.36218"
       id="rect2818-1"
       style="fill:#cc7b14;fill-opacity:1;stroke:#000000;stroke-opacity:1" />
    <rect
       width="40"
       height="40"
       x="120"
       y="412.36218"
       id="rect2818-0"
       style="fill:#cc7b14;fill-opacity:1;stroke:#000000;stroke-opacity:1" />
    <rect
       width="40"
       height="40"
       x="160"
       y="412.36218"
       id="rect2818-1-6"
       style="fill:#cc7b14;fill-opacity:1;stroke:#000000;stroke-opacity:1" />
    <rect
       width="40"
       height="40"
       x="200"
       y="412.36218"
       id="rect2818-15"
       style="fill:#cc7b14;fill-opacity:1;stroke:#000000;stroke-opacity:1" />
    <rect
       width="40"
       height="40"
       x="240"
       y="412.36218"
       id="rect2818-1-9"
       style="fill:#cc7b14;fill-opacity:1;stroke:#000000;stroke-opacity:1" />
    <rect
       width="40"
       height="40"
       x="280"
       y="412.36218"
       id="rect2818-0-4"
       style="fill:#cc7b14;fill-opacity:1;stroke:#000000;stroke-opacity:1" />
    <rect
       width="40"
       height="40"
       x="320"
       y="412.36218"
       id="rect2818-1-6-9"
       style="fill:#cc7b14;fill-opacity:1;stroke:#000000;stroke-opacity:1" />
    <rect
       width="40"
       height="40"
       x="360"
       y="412.36218"
       id="rect2818-9"
       style="fill:#cc7b14;fill-opacity:1;stroke:#000000;stroke-opacity:1" />
    <rect
       width="40"
       height="40"
       x="400"
       y="412.36218"
       id="rect2818-1-1"
       style="fill:#cc7b14;fill-opacity:1;stroke:#000000;stroke-opacity:1" />
    <rect
       width="40"
       height="40"
       x="440"
       y="412.36218"
       id="rect2818-0-7"
       style="fill:#cc7b14;fill-opacity:1;stroke:#000000;stroke-opacity:1" />
    <rect
       width="40"
       height="40"
       x="480"
       y="412.36218"
       id="rect2818-1-6-7"
       style="fill:#cc7b14;fill-opacity:1;stroke:#000000;stroke-opacity:1" />
    <text
       x="10"
       y="442.36218"
       id="text3685"
       xml:space="preserve"
       style="font-size:40px;font-style:normal;font-weight:normal;fill:#000000;fill-opacity:1;stroke:none;font-family:Bitstream Vera Sans"><tspan
         x="10"
         y="442.36218"
         id="tspan3687">a</tspan></text>
    <rect
       width="40"
       height="40"
       x="40"
       y="472.36218"
       id="rect2818-11"
       style="fill:#cc7b14;fill-opacity:1;stroke:#000000;stroke-opacity:1" />
    <rect
       width="40"
       height="40"
       x="80"
       y="472.36218"
       id="rect2818-1-5"
       style="fill:#cc7b14;fill-opacity:1;stroke:#000000;stroke-opacity:1" />
    <rect
       width="40"
       height="40"
       x="120"
       y="472.36218"
       id="rect2818-0-9"
       style="fill:#cc7b14;fill-opacity:1;stroke:#000000;stroke-opacity:1" />
    <rect
       width="40"
       height="40"
       x="160"
       y="472.36218"
       id="rect2818-1-6-77"
       style="fill:#cc7b14;fill-opacity:1;stroke:#000000;stroke-opacity:1" />
    <rect
       width="40"
       height="40"
       x="200"
       y="472.36218"
       id="rect2818-15-6"
       style="fill:#cc7b14;fill-opacity:1;stroke:#000000;stroke-opacity:1" />
    <rect
       width="40"
       height="40"
       x="240"
       y="472.36218"
       id="rect2818-1-9-7"
       style="fill:#cc7b14;fill-opacity:1;stroke:#000000;stroke-opacity:1" />
    <rect
       width="40"
       height="40"
       x="280"
       y="472.36218"
       id="rect2818-0-4-3"
       style="fill:#cc7b14;fill-opacity:1;stroke:#000000;stroke-opacity:1" />
    <rect
       width="40"
       height="40"
       x="320"
       y="472.36218"
       id="rect2818-1-6-9-6"
       style="fill:#cc7b14;fill-opacity:1;stroke:#000000;stroke-opacity:1" />
    <rect
       width="40"
       height="40"
       x="360"
       y="472.36218"
       id="rect2818-9-5"
       style="fill:#cc7b14;fill-opacity:1;stroke:#000000;stroke-opacity:1" />
    <rect
       width="40"
       height="40"
       x="400"
       y="472.36218"
       id="rect2818-1-1-6"
       style="fill:#cc7b14;fill-opacity:1;stroke:#000000;stroke-opacity:1" />
    <rect
       width="40"
       height="40"
       x="440"
       y="472.36218"
       id="rect2818-0-7-3"
       style="fill:#cc7b14;fill-opacity:1;stroke:#000000;stroke-opacity:1" />
    <rect
       width="40"
       height="40"
       x="480"
       y="472.36218"
       id="rect2818-1-6-7-9"
       style="fill:#cc7b14;fill-opacity:1;stroke:#000000;stroke-opacity:1" />
    <text
       x="10"
       y="502.36218"
       id="text3685-4"
       xml:space="preserve"
       style="font-size:40px;font-style:normal;font-weight:normal;fill:#000000;fill-opacity:1;stroke:none;font-family:Bitstream Vera Sans"><tspan
         x="10"
         y="502.36218"
         id="tspan3687-8">b</tspan></text>
    <rect
       width="40"
       height="40"
       x="40"
       y="532.36218"
       id="rect2818-2"
       style="fill:#cc7b14;fill-opacity:1;stroke:#000000;stroke-opacity:1" />
    <rect
       width="40"
       height="40"
       x="80"
       y="532.36218"
       id="rect2818-1-93"
       style="fill:#cc7b14;fill-opacity:1;stroke:#000000;stroke-opacity:1" />
    <rect
       width="40"
       height="40"
       x="120"
       y="532.36218"
       id="rect2818-0-90"
       style="fill:#cc7b14;fill-opacity:1;stroke:#000000;stroke-opacity:1" />
    <rect
       width="40"
       height="40"
       x="160"
       y="532.36218"
       id="rect2818-1-6-8"
       style="fill:#cc7b14;fill-opacity:1;stroke:#000000;stroke-opacity:1" />
    <rect
       width="40"
       height="40"
       x="200"
       y="532.36218"
       id="rect2818-15-8"
       style="fill:#cc7b14;fill-opacity:1;stroke:#000000;stroke-opacity:1" />
    <rect
       width="40"
       height="40"
       x="240"
       y="532.36218"
       id="rect2818-1-9-5"
       style="fill:#cc7b14;fill-opacity:1;stroke:#000000;stroke-opacity:1" />
    <rect
       width="40"
       height="40"
       x="280"
       y="532.36218"
       id="rect2818-0-4-0"
       style="fill:#cc7b14;fill-opacity:1;stroke:#000000;stroke-opacity:1" />
    <rect
       width="40"
       height="40"
       x="320"
       y="532.36218"
       id="rect2818-1-6-9-9"
       style="fill:#cc7b14;fill-opacity:1;stroke:#000000;stroke-opacity:1" />
    <rect
       width="40"
       height="40"
       x="360"
       y="532.36218"
       id="rect2818-9-6"
       style="fill:#cc7b14;fill-opacity:1;stroke:#000000;stroke-opacity:1" />
    <rect
       width="40"
       height="40"
       x="400"
       y="532.36218"
       id="rect2818-1-1-3"
       style="fill:#cc7b14;fill-opacity:1;stroke:#000000;stroke-opacity:1" />
    <rect
       width="40"
       height="40"
       x="440"
       y="532.36218"
       id="rect2818-0-7-8"
       style="fill:#cc7b14;fill-opacity:1;stroke:#000000;stroke-opacity:1" />
    <rect
       width="40"
       height="40"
       x="480"
       y="532.36218"
       id="rect2818-1-6-7-5"
       style="fill:#cc7b14;fill-opacity:1;stroke:#000000;stroke-opacity:1" />
    <text
       x="10"
       y="562.36218"
       id="text3685-6"
       xml:space="preserve"
       style="font-size:40px;font-style:normal;font-weight:normal;fill:#000000;fill-opacity:1;stroke:none;font-family:Bitstream Vera Sans"><tspan
         x="10"
         y="562.36218"
         id="tspan3687-1">c</tspan></text>
    <path
       d="m 60,652.36218 0,-60"
       id="path3787"
       style="fill:none;stroke:#000000;stroke-width:1px;stroke-linecap:butt;stroke-linejoin:miter;stroke-opacity:1;marker-end:url(#Arrow1Lend)" />
    <path
       d="m 100,652.36218 0,-60"
       id="path3787-9"
       style="fill:none;stroke:#000000;stroke-width:1px;stroke-linecap:butt;stroke-linejoin:miter;stroke-opacity:1;marker-end:url(#Arrow1Lend)" />
    <path
       d="m 140,652.36218 0,-60"
       id="path3787-8"
       style="fill:none;stroke:#000000;stroke-width:1px;stroke-linecap:butt;stroke-linejoin:miter;stroke-opacity:1;marker-end:url(#Arrow1Lend)" />
    <path
       d="m 180,652.36218 0,-60"
       id="path3787-9-1"
       style="fill:none;stroke:#000000;stroke-width:1px;stroke-linecap:butt;stroke-linejoin:miter;stroke-opacity:1;marker-end:url(#Arrow1Lend)" />
    <path
       d="m 220,652.36218 0,-60"
       id="path3787-88"
       style="fill:none;stroke:#000000;stroke-width:1px;stroke-linecap:butt;stroke-linejoin:miter;stroke-opacity:1;marker-end:url(#Arrow1Lend)" />
    <path
       d="m 260,652.36218 0,-60"
       id="path3787-9-9"
       style="fill:none;stroke:#000000;stroke-width:1px;stroke-linecap:butt;stroke-linejoin:miter;stroke-opacity:1;marker-end:url(#Arrow1Lend)" />
    <path
       d="m 300,652.36218 0,-60"
       id="path3787-8-7"
       style="fill:none;stroke:#000000;stroke-width:1px;stroke-linecap:butt;stroke-linejoin:miter;stroke-opacity:1;marker-end:url(#Arrow1Lend)" />
    <path
       d="m 340,652.36218 0,-60"
       id="path3787-9-1-7"
       style="fill:none;stroke:#000000;stroke-width:1px;stroke-linecap:butt;stroke-linejoin:miter;stroke-opacity:1;marker-end:url(#Arrow1Lend)" />
    <path
       d="m 380,652.36218 0,-60"
       id="path3787-5"
       style="fill:none;stroke:#000000;stroke-width:1px;stroke-linecap:butt;stroke-linejoin:miter;stroke-opacity:1;marker-end:url(#Arrow1Lend)" />
    <path
       d="m 420,652.36218 0,-60"
       id="path3787-9-4"
       style="fill:none;stroke:#000000;stroke-width:1px;stroke-linecap:butt;stroke-linejoin:miter;stroke-opacity:1;marker-end:url(#Arrow1Lend)" />
    <path
       d="m 460,652.36218 0,-60"
       id="path3787-8-8"
       style="fill:none;stroke:#000000;stroke-width:1px;stroke-linecap:butt;stroke-linejoin:miter;stroke-opacity:1;marker-end:url(#Arrow1Lend)" />
    <path
       d="m 500,652.36218 0,-60"
       id="path3787-9-1-1"
       style="fill:none;stroke:#000000;stroke-width:1px;stroke-linecap:butt;stroke-linejoin:miter;stroke-opacity:1;marker-end:url(#Arrow1Lend)" />
  </g>
</svg>
